<?xml version="1.0" encoding="UTF-8" standalone="no"?>
<!DOCTYPE svg PUBLIC "-//W3C//DTD SVG 1.1//EN" "http://www.w3.org/Graphics/SVG/1.1/DTD/svg11.dtd">
<svg width="370px" height="440px" viewBox="0 0 370 440" version="1.1" xmlns="http://www.w3.org/2000/svg" xmlns:xlink="http://www.w3.org/1999/xlink" xml:space="preserve" xmlns:serif="http://www.serif.com/" style="fill-rule:evenodd;clip-rule:evenodd;stroke-linecap:round;stroke-linejoin:round;stroke-miterlimit:1.5;">
  <rect id="Artboard1" x="0" y="0" width="370" height="440" style="fill:none;"/>
  <rect x="10" y="10" width="110" height="50" style="fill-opacity:0.5;"/>
  <rect x="10" y="70" width="110" height="50" style="fill:#fff;"/>
  <path d="M120,70l-110,-0l0,50l110,-0l0,-50Zm-4.975,4.975l0,40.05c0,0 -100.05,0 -100.05,0c-0,0 -0,-40.05 -0,-40.05l100.05,-0Z" style="fill-opacity:0.5;"/>
  <path d="M120,200.833l-10.833,-10.833l-88.334,0l-10.833,10.833l0,28.334l10.833,10.833l88.334,-0l10.833,-10.833l-0,-28.334Z" style="fill:#fff;"/>
  <path d="M120,200.833l-10.833,-10.833l-88.334,0l-10.833,10.833l0,28.334l10.833,10.833l88.334,-0l10.833,-10.833l-0,-28.334Zm-5,2.071l-0,24.192c-0,-0 -7.904,7.904 -7.904,7.904c-0,-0 -84.192,0 -84.192,0c0,-0 -7.904,-7.904 -7.904,-7.904c0,-0 0,-24.192 0,-24.192c0,0 7.904,-7.904 7.904,-7.904c0,0 84.192,0 84.192,0l7.904,7.904Z" style="fill:#6c0b6a;fill-opacity:0.5;"/>
  <path d="M240,190l-100.216,0l-9.784,9.784l-0,40.216l100.216,-0l9.784,-9.784l-0,-40.216Z" style="fill:#fff;"/>
  <path d="M240,190l-100.216,0l-9.784,9.784l-0,40.216l100.216,-0l9.784,-9.784l-0,-40.216Zm-5,5l-0,33.145c0,0 -6.855,6.855 -6.855,6.855c0,0 -93.145,0 -93.145,0c-0,-0 -0,-33.145 -0,-33.145c-0,-0 6.855,-6.855 6.855,-6.855l93.145,0Z" style="fill:#6c0b6a;fill-opacity:0.5;"/>
  <path d="M240,120l-100.216,-0l-9.784,-9.784l-0,-40.216l100.216,0l9.784,9.784l-0,40.216Z" style="fill:#fff;"/>
  <path d="M240,120l-100.216,0l-9.784,-9.784l-0,-40.216l100.216,0l9.784,9.784l0,40.216Zm-5,-5l-93.145,0c-0,-0 -6.855,-6.855 -6.855,-6.855c-0,0 -0,-33.145 -0,-33.145c0,0 93.145,0 93.145,0c0,0 6.855,6.855 6.855,6.855l-0,33.145Z" style="fill:#0f3393;fill-opacity:0.5;"/>
  <path d="M120,327.121c-0,-9.449 -7.672,-17.121 -17.121,-17.121l-75.758,0c-9.449,0 -17.121,7.672 -17.121,17.121l-0,15.758c-0,9.449 7.672,17.121 17.121,17.121l75.758,-0c9.449,-0 17.121,-7.672 17.121,-17.121l-0,-15.758Z" style="fill:#fff;"/>
  <clipPath id="_clip1">
    <path d="M120,327.121c-0,-9.449 -7.672,-17.121 -17.121,-17.121l-75.758,0c-9.449,0 -17.121,7.672 -17.121,17.121l-0,15.758c-0,9.449 7.672,17.121 17.121,17.121l75.758,-0c9.449,-0 17.121,-7.672 17.121,-17.121l-0,-15.758Z"/>
  </clipPath>
  <g clip-path="url(#_clip1)">
    <path d="M123.4,158.307c0,-13.255 -10.745,-24 -24,-24c-39.116,-0 -116.249,-0 -156.175,-0l-25.276,25.276l0,0.003l25.276,25.276l156.175,0c13.255,0 24,-10.745 24,-24c0,-0.851 0,-1.704 0,-2.555Z" style="fill:#ededed;stroke:#000;stroke-width:4px;"/>
  </g>
  <path d="M120,327.121c-0,-9.449 -7.672,-17.121 -17.121,-17.121l-75.758,0c-9.449,0 -17.121,7.672 -17.121,17.121l-0,15.758c-0,9.449 7.672,17.121 17.121,17.121l75.758,-0c9.449,-0 17.121,-7.672 17.121,-17.121l-0,-15.758Zm-5,0l-0,15.758c-0,6.69 -5.431,12.121 -12.121,12.121c-0,-0 -75.758,-0 -75.758,-0c-6.69,-0 -12.121,-5.431 -12.121,-12.121l-0,-15.758c-0,-6.69 5.431,-12.121 12.121,-12.121l75.758,0c6.69,0 12.121,5.431 12.121,12.121Z" style="fill:#12670f;fill-opacity:0.5;"/>
  <path d="M360,335c-0,-13.807 -11.491,-25 -25.667,-25c-17.655,0 -41.011,0 -58.666,0c-6.808,-0 -13.336,2.634 -18.149,7.322c-4.814,4.689 -7.518,11.048 -7.518,17.678l-0,0c0,13.807 11.491,25 25.667,25l58.666,-0c14.176,0 25.667,-11.193 25.667,-25c-0,0 -0,0 -0,-0Z" style="fill:#fff;"/>
  <path d="M360,335c-0,-13.807 -11.491,-25 -25.667,-25c-17.655,0 -41.011,0 -58.666,0c-6.808,-0 -13.336,2.634 -18.149,7.322c-4.814,4.689 -7.518,11.048 -7.518,17.678l-0,0c0,13.807 11.491,25 25.667,25l58.666,-0c14.176,0 25.667,-11.193 25.667,-25c-0,0 -0,0 -0,-0Zm-4.993,-0l-0,0c-0,11.086 -9.292,20.007 -20.674,20.007l-58.666,-0c-11.382,-0 -20.674,-8.921 -20.674,-20.007c0,0 0,0 0,0c0,-5.29 2.168,-10.36 6.009,-14.101c3.888,-3.787 9.166,-5.906 14.665,-5.906c17.655,0 41.011,0 58.666,0c11.382,0 20.674,8.921 20.674,20.007Z" style="fill:#6c0b6a;fill-opacity:0.5;"/>
  <path d="M360,211.667l-21.667,-21.667l-66.663,0l-21.667,21.667l-0,6.666l21.667,21.667l66.663,-0l21.667,-21.667l0,-6.666Z" style="fill:#fff;"/>
  <path d="M360,211.667l-21.667,-21.667l-66.663,0l-21.667,21.667l-0,6.666l21.667,21.667l66.663,-0l21.667,-21.667l0,-6.666Zm-5,2.071l0,2.524c0,0 -18.738,18.738 -18.738,18.738c0,-0 -62.521,-0 -62.521,-0c-0,0 -18.738,-18.738 -18.738,-18.738c-0,0 -0,-2.524 -0,-2.524c-0,-0 18.738,-18.738 18.738,-18.738c-0,0 62.521,0 62.521,0l18.738,18.738Z" style="fill:#e97814;fill-opacity:0.5;"/>
  <path d="M120,140.833l-10.833,-10.833l-88.334,-0l-10.833,10.833l-0,28.334l10.833,10.833l88.334,-0l10.833,-10.833l0,-28.334Z" style="fill:#6c0b6a;fill-opacity:0.5;"/>
  <path d="M240,130l-100.216,0l-9.784,9.784l-0,40.216l100.216,-0l9.784,-9.784l-0,-40.216Z" style="fill:#6c0b6a;fill-opacity:0.5;"/>
  <path d="M240,60l-100,0l-9.784,-9.784c0,-14.697 -0.213,-40.216 -0.213,-40.216l100,0l9.997,9.784l-0,40.216Z" style="fill:#0f3393;fill-opacity:0.5;"/>
  <path d="M120,267.121c0,-9.449 -7.672,-17.121 -17.121,-17.121l-75.758,0c-9.449,0 -17.121,7.672 -17.121,17.121l-0,16.313c-0,9.45 7.672,16.566 17.121,16.566l75.758,-0c9.449,-0 17.121,-7.672 17.121,-17.121l0,-15.758Z" style="fill:#12670f;fill-opacity:0.5;"/>
  <clipPath id="_clip2">
    <path d="M120,267.121c0,-9.449 -7.672,-17.121 -17.121,-17.121l-75.758,0c-9.449,0 -17.121,7.672 -17.121,17.121l-0,16.313c-0,9.45 7.672,16.566 17.121,16.566l75.758,-0c9.449,-0 17.121,-7.672 17.121,-17.121l0,-15.758Z"/>
  </clipPath>
  <g clip-path="url(#_clip2)">
    <path d="M123.482,98.307c-0,-13.255 -10.745,-24 -24,-24c-39.116,-0 -116.249,-0 -156.175,-0l-25.276,25.276l-0,0.003l25.276,25.276l156.175,0c6.365,0 12.47,-2.528 16.97,-7.029c4.501,-4.501 7.03,-10.606 7.03,-16.971c-0,-0.851 -0,-1.704 -0,-2.555Z" style="fill:#ededed;stroke:#000;stroke-width:4px;"/>
  </g>
  <path d="M360,275c-0,-13.807 -11.491,-25 -25.667,-25c-17.655,0 -41.011,0 -58.666,0c-6.808,-0 -13.336,2.634 -18.149,7.322c-4.814,4.689 -7.518,11.048 -7.518,17.678l-0,0c0,13.807 11.491,25 25.667,25l58.666,-0c14.176,0 25.667,-11.193 25.667,-25c-0,0 -0,0 -0,-0Z" style="fill:#6c0b6a;fill-opacity:0.5;"/>
  <path d="M360,151.667l-21.667,-21.667l-66.666,-0l-21.667,21.667l0,6.666l21.667,21.667l66.666,-0l21.667,-21.667l0,-6.666Z" style="fill:#e97814;fill-opacity:0.5;"/>
  <rect x="10" y="370" width="16" height="60" style="fill:#a8a8a8;fill-opacity:0.5;"/>
  <rect x="104" y="370" width="16" height="60" style="fill:#a8a8a8;fill-opacity:0.5;"/>
  <rect x="250.003" y="370" width="29.997" height="60" style="fill:#a8a8a8;fill-opacity:0.5;"/>
  <rect x="330" y="370" width="30.003" height="60" style="fill:#a8a8a8;fill-opacity:0.5;"/>
</svg>