<?xml version="1.0" encoding="UTF-8"?><svg id="Layer_2" xmlns="http://www.w3.org/2000/svg" viewBox="0 0 986.5 986.64"><defs><style>.cls-1{fill:#39ab7f;}</style></defs><g id="Layer_1-2"><g><path class="cls-1" d="M493.16,0c275.08,3.38,492.3,218.34,493.34,494.2,.51,135.23-49.03,252.91-145.33,348.78-95.84,95.41-213.26,143.63-347.88,143.66-134.38,.03-251.66-48.03-347.44-143.16C48.97,747.26-.71,629.1,0,493.18,1.46,218.45,218.15,3.46,493.16,0Zm.92,38.92v.29c-13.83,0-27.77-1.1-41.46,.27-18.38,1.85-36.71,4.97-54.81,8.74-16.42,3.43-32.88,7.43-48.65,13.07-20.01,7.15-39.66,15.5-58.88,24.57-37.76,17.82-71.72,41.53-102.35,69.85-21.85,20.21-42.52,41.61-60.16,65.7-26.45,36.12-48.14,74.87-63.04,117.16-5.14,14.57-9.59,29.49-12.89,44.57-2.4,10.95,5.49,21.31,15.57,23.47,12.49,2.68,23.05-3.32,26.72-15.06,3.75-12.02,7.2-24.16,11.53-35.98,17.78-48.5,42.87-92.83,77.1-131.68,38.78-44.02,84.4-79.07,137.83-103.72,21.06-9.71,42.65-17.97,65.18-23.55,11.09-2.74,22.24-5.3,33.48-7.33,13.52-2.44,27.15-5.82,40.76-5.96,27.37-.27,54.87-2.77,82.16,1.86,15.4,2.61,31.2,3.68,46.2,7.73,21.71,5.86,43.45,12.39,64.15,21.09,59.75,25.1,111.35,61.77,153.55,111.39,25.79,30.32,47.29,63.33,63.09,99.74,8.48,19.56,15.15,40,21.28,60.45,4.8,16.01,8.61,32.49,10.87,49.03,2.27,16.63,2,33.59,3.05,50.4,.32,5.1,.86,10.28,2.11,15.22,2.79,11.03,12.99,16.64,26.27,14.96,8.47-1.07,15.79-9.95,15.52-19.83-.47-17.59-1.54-35.17-2.11-52.76-.62-19.23-4.24-38.02-9.5-56.35-6.37-22.21-13.12-44.41-21.52-65.9-22.18-56.77-56.54-105.75-99.32-148.85-25.08-25.26-52.76-47.43-83.2-66.06-33.72-20.63-69.23-37.32-107.26-48.22-16.51-4.73-33.29-8.73-50.17-11.92-15.54-2.93-31.33-4.88-47.1-6.22-11.25-.96-22.65-.19-33.99-.19Zm-98.43,356.07c-.34-5.63-.79-10.02-.72-14.43-1.3-13.25-4.28-17.82-9.62-26.56-9.05-14.8-23.81-21.93-40.97-23.25-26.4-2.03-50.87,5.41-74.28,16.72-18.82,9.09-34.68,21.99-49.33,37.04-15.95,16.39-23.77,35.91-26.44,57.7-2.44,19.88,1.37,39.33,9.03,57.73,4.52,10.88,9.83,21.61,16.2,31.5,7.63,11.86,16.75,22.75,25.22,34.06,2.18,2.91,4.48,5.73,6.53,8.73,7.1,10.39,13.34,21.46,21.3,31.13,16.83,20.43,31.28,41.89,37.41,68.14,3.09,13.26-2.5,19.58-15.95,17.28-1.13-.19-2.29-.41-3.36-.8-7.91-2.9-15.81-5.85-23.72-8.77-4.84-1.79-7.37-.17-6.87,4.62,1.72,16.4,6.47,31.99,15.86,45.51,8.48,12.2,18.32,23.35,35.38,23.21,13.03-.11,26.13,.8,38.25-5.53,14.55-7.6,25.47-18.27,29.47-34.73,1.02-4.22,2.03-8.63,1.9-12.92-.38-12.4-.7-24.86-2.32-37.13-.98-7.42-4.41-14.51-6.63-21.79-4.95-16.22-13.36-30.61-24.88-42.8-10.77-11.4-23.08-21.32-34.12-32.48-8.61-8.7-15.89-18.71-24.49-27.43-14.87-15.07-26.97-31.92-34.72-51.6-8.11-20.61-5.55-35.82,17.2-45.53,7.25-3.09,15.47-4.94,23.35-5.33,24.34-1.21,48.66-.61,72.77,3.75,4.31,.78,8.89,1.18,13.18,.57,2.55-.36,5.91-2.54,6.93-4.79,5.76-12.63,9.05-27.54,8.44-41.83Zm126.41,122.29c.25,1.65,.67,3.11,.68,4.58,.2,26.48,.5,52.96,.44,79.44-.02,10.34-.93,20.68-1.32,31.02-.69,18.19-1.29,36.39-1.94,54.58-.15,4.15,1.71,5.45,5.73,4.5,6.52-1.54,13.08-2.9,19.64-4.23,31.69-6.43,63.38-12.88,95.1-19.14,3.75-.74,5.17-2.22,5.05-6.04-.26-9.02-.11-18.04-.28-27.06-.04-2.17-.7-4.34-1.18-7.13-27.89,5.98-55.09,11.81-83.89,17.98,0-7.58-.47-13.88,.09-20.1,1.48-16.59-1.98-13.53,14.53-16.78,14.07-2.77,28.26-4.98,42.47-6.98,5.83-.82,8.45-3.43,8.1-9.19-.42-7.07-.7-14.16-1.29-21.22-.35-4.23-1.17-8.43-1.84-13.13-20.03,3.91-38.93,7.6-57.94,11.31-.39-1.26-.79-1.96-.8-2.68-.36-18.61-.65-37.22-1.05-55.82-.07-3.44,1.6-4.55,4.72-5.19,21.93-4.49,43.82-9.2,65.75-13.7,3.79-.78,5.78-2.13,5.18-6.48-1.23-8.9-2.07-17.86-3.05-26.79-.9-8.16-1.95-9-10.25-7.22-24.33,5.21-48.64,10.49-72.94,15.82-13.64,2.99-27.25,6.12-40.87,9.2-4.35,.98-6.62,3.37-6.01,8.14,1.05,8.16,1.59,16.39,2.91,24.49,1.57,9.62,1.82,9.58,11.69,7.96,.72-.12,1.46-.1,2.57-.16Zm165.92,168.79v-.08c5.76,0,11.52,.11,17.28-.03,6.76-.16,7.17-1.22,6.57-8.06-1.25-14.29-2.18-28.62-2.98-42.95-.37-6.61,1.97-11.16,9.01-13.9,26.14-10.18,48.49-26.37,68.42-45.85,12.35-12.07,18.82-26.84,14.68-44.27-4.07-17.12-15.68-29.67-28.33-40.98-13.48-12.05-29.59-19.79-46.5-25.85-19.58-7.01-39.82-11.02-60.49-12.99-3.91-.37-6.01,.74-6.62,4.99-1.24,8.51-2.97,16.95-4.43,25.43-1.35,7.9-1.29,8.06,6.66,8.54,3.15,.19,4.96,.86,5.1,4.53,.63,16.27,1.92,32.53,2.13,48.81,.37,28.21,.14,56.43,.1,84.64,0,4.01-.38,8.03-.62,12.04-.84,13.58-1.67,27.15-2.57,40.72-.26,3.93,1.27,5.52,5.33,5.33,5.75-.27,11.52-.07,17.28-.07Zm4.19-370.91l-2.06-.27c-.32-.67-.71-1.31-.95-2.01-7.48-21.96-14.83-43.94-16.36-67.34-.26-3.97-1.61-5.9-6.24-4.53-6.97,2.06-14.11,3.56-21.23,5.1-4.26,.92-5.69,3.12-5.71,7.59-.12,20.33-.51,40.67-1.09,61-.29,9.95-1.09,19.89-1.88,29.82-1.14,14.51-2.59,28.99-3.58,43.5-.11,1.65,1.63,4.71,2.91,4.94,6.95,1.27,14.03,1.82,21.06,2.68,3.3,.4,5.13-.96,5.48-4.26,.44-4.19,1.11-8.37,1.24-12.57,.51-16.3,.83-32.61,1.27-48.92,.04-1.4,.46-2.8,.92-5.42,1.25,2.47,2.16,3.73,2.55,5.12,3.94,14.37,7.9,28.74,11.6,43.18,.85,3.33,2.04,5.11,5.77,4.49,6.42-1.07,12.95-1.59,19.25-3.11,1.88-.45,4.1-3.28,4.51-5.35,1-5.04,.76-10.31,1.51-15.41,1.74-11.85,3.77-23.67,5.68-35.49,.53,.05,1.05,.1,1.58,.15,.32,1.65,.71,3.29,.95,4.95,3.07,21.2,6.23,42.39,9.1,63.62,.59,4.37,2.69,5.03,6.24,4.12,5.57-1.43,11.13-2.85,16.67-4.37,8.49-2.33,8.48-2.36,6.62-10.68-.08-.37-.26-.73-.33-1.1-4.34-23.51-9.67-46.89-12.71-70.57-2.71-21.05-3.01-42.41-4.07-63.66-.22-4.32-1.14-6.66-5.88-5.89-7.74,1.26-15.55,2.23-23.19,3.95-1.64,.37-3.49,3.3-3.85,5.3-1.83,10.16-2.62,20.53-4.89,30.57-3.1,13.74-7.22,27.25-10.9,40.86Zm-275.89,190.6c.5,.96,.83,1.29,.82,1.62-.43,34.71-.63,69.43-1.44,104.13-.57,24.34-1.91,48.65-3.03,72.97-.19,4.22,1.69,5.42,5.51,5.01,11.8-1.26,23.61-2.44,35.42-3.67,3.69-.38,5.15-2.32,5.03-6.16-.5-15.53-1-31.07-1.05-46.61-.15-43.7-.05-87.4-.15-131.11,0-3.3,.91-4.67,4.44-5.1,10.06-1.22,20.05-3.07,30.1-4.4,5.24-.69,7.85-2.72,7.02-8.52-.95-6.62-.88-13.4-1.87-20.01-1.92-12.75-3.22-13.47-16.47-11.05-11.67,2.13-23.39,3.97-34.99,6.43-21.33,4.53-42.59,9.4-63.87,14.16-3.2,.72-4.65,2.18-4.09,6.09,1.31,9.08,1.97,18.26,2.7,27.42,.38,4.69,1.52,6.92,7.13,5.34,9.52-2.68,19.3-4.45,28.79-6.56Zm75.31-208.49c8.52,2.77,16.73,1,24.74-1.81,1.44-.51,3.09-3.09,3.07-4.7-.12-12.45-.01-24.96-1.19-37.34-1.08-11.39-12.19-22.61-27.21-17.97-13.58,4.2-24.79,11.61-33.95,22.57-15.43,18.43-25.5,39.6-28.91,63.04-3.7,25.44,5.86,47.66,24.85,64.48,19.79,17.53,51.18,21.04,67.59-11.9,.09-.17,.15-.36,.24-.52,9.01-16.68,12.62-34.45,10.33-53.27-1.67-13.75-.39-11.17-12.47-9.61-.95,.12-1.94,.09-2.85,.37-14.42,4.43-28.86,8.79-43.19,13.49-1.76,.58-4.35,3.36-4.08,4.57,1.73,7.73,4.15,15.31,6.43,23.24,9.68-3.48,18.12-6.51,26.56-9.54,.39,.5,.77,1.01,1.16,1.51-1.89,5.58-3.32,11.37-5.78,16.69-5.56,12-16.04,13.73-25.38,4.22-8.89-9.05-14.72-20.16-15.16-32.72-.84-24.21,10.42-43.84,26.27-61.13,1.72-1.87,4.8-2.48,7.25-3.68,.65,2.71,1.36,5.41,1.92,8.13,.15,.71-.25,1.51-.25,2.28-.02,6.31-.01,12.62-.01,19.61Zm120.48,7.53c-14.25,2.7-27.06,5.13-40.49,7.67,0-12.67,.13-24.36-.07-36.04-.07-4.02,1.3-5.78,5.31-6.58,13.52-2.68,26.94-5.86,40.46-8.53,3.9-.77,5.19-2.34,4.56-6.2-.81-4.9-1.25-9.86-1.82-14.8-.84-7.28-1.66-7.98-8.66-6.49-12.36,2.62-24.7,5.34-37.04,8.05-11.4,2.51-22.81,5.01-34.19,7.62-7.29,1.67-8.14,2.74-7.43,10.26,.51,5.33,1.26,10.66,2.45,15.87,.3,1.32,3.01,3.3,4.08,3.02,4.2-1.12,5.21,.56,5.14,4.25-.64,32.39-1.27,64.77-1.81,97.16-.08,4.69,.38,9.39,.62,14.84,5.02-1.04,9.1-1.91,13.19-2.72,21.58-4.31,43.18-8.56,64.73-13,2-.41,5.29-1.97,5.37-3.15,.48-7.93,.25-15.9,.25-24.44-3.27,.36-5.36,.41-7.37,.85-10.85,2.37-21.61,5.21-32.53,7.17-19.24,3.46-16.12,7.65-16.46-13.88-.06-3.61,1.44-5.11,4.92-5.66,10.77-1.72,21.53-3.54,32.22-5.68,2.02-.4,5.26-2.43,5.29-3.77,.19-8.31-.37-16.64-.71-25.81ZM36.86,506.14c-.34,.04,.05,6.28,.18,9.24l.39,4.87c1.85,16.57,2.84,26.05,5.41,42.6,2.4,15.43,5.72,30.76,9.51,45.92,2.08,8.3,8.14,15.12,16.2,17.41,17.11,4.87,29.21-12.6,27.49-25.09-.6-4.32-1.95-8.54-2.83-12.83-2.8-13.61-6.45-27.12-8.07-40.86-1.88-15.94-1-32.22-3.24-48.08-1.08-7.64-5.17-15.97-10.48-21.55-4.64-4.88-13.77-5.79-20.03-2.15-7.02,4.09-10.72,7.56-12.8,17.71-1.21,5.88-1.39,7.03-1.72,12.82Zm167.94,291.6c1.65-7.25-2.45-13.42-7.91-18.87-22.22-22.21-40.28-47.56-57.17-73.92-3.75-5.86-9.8-10.64-15.65-14.65-6.67-4.57-21.79,1.19-24.79,8.72-3.6,9.06-4.21,17.55,1.34,26.76,14.19,23.55,30.25,45.67,48.05,66.55,5.71,6.69,11.93,13,18.32,19.05,5.97,5.66,13.59,9.86,21.63,8.49,10.81-1.84,16.06-9.99,16.18-22.13Zm69.2,47.97c-11.19,.74-20.53,7.96-22.32,17.85-1.83,10.13,4.92,22.46,14.24,26.34,3.17,1.32,6.1,3.2,9.24,4.62,20.59,9.28,41.01,19,61.9,27.56,12.02,4.93,25.49-1.69,29.51-12.81,4.14-11.43-1.76-23.03-13.76-28.55-22.56-10.38-44.92-21.22-67.45-31.67-3.54-1.64-7.57-2.25-11.37-3.34ZM349.27,232.36c-12.59-.65-19.58,7.1-23.41,17.17-5.09,13.4-5.33,27.66,.72,40.82,3.42,7.43,8.93,14.15,14.51,20.28,7.99,8.78,21.82,8.06,30.55,.04,6.23-5.72,8.48-12.71,9.91-20.64,3.5-19.4-.67-36.37-14.92-50.34-4.77-4.68-10.44-7.83-17.36-7.32Zm-75.88,46.72c.6,12.21,4.85,21.62,14.54,28.67,6.31,4.58,15.3,4.38,21.32-.44,10.59-8.48,10.18-19.8,8.63-31.49-.99-7.45-5.21-13.27-10.67-17.85-10.12-8.48-21.6-7.52-28.5,4.56-2.81,4.92-3.6,11-5.32,16.55Zm557.8,45.95c-.63-6.06-1.09-10.43-1.55-14.79-.34-3.24-2.03-4.68-5.38-4.35-5.13,.5-10.32,.56-15.41,1.26-12.67,1.74-25.29,3.81-37.94,5.6-3.25,.46-4.24,1.75-3.38,4.99,1.37,5.16,2.6,10.37,3.5,15.62,.88,5.12,3.27,6.31,8.38,5.33,14.8-2.83,29.69-5.28,44.6-7.48,5.01-.74,8.13-2.13,7.18-6.17Zm-558.67-17.29c1.62-8.39-4.03-14.72-10.58-20.35-6.76-5.81-16.67-4.15-21.43,3.39-8.56,13.59,2.15,32.87,14.52,36.09,9.5,2.47,17.53-5.87,17.49-19.13Zm-64.95,17.59c.02,9.67,.57,10.77,9.24,18.56,6.95,6.24,18.66,2.78,20.45-6.38,.79-4.04,.93-8.58-.07-12.52-1.77-6.99-6.52-12.61-13.27-14.86-9.43-3.15-16.38,3.77-16.36,15.2Zm4.05,34.89c.03-9.01-7.8-18.13-15.6-18.18-6.45-.04-13.51,7.22-13.54,13.92-.03,7.82,9.45,18.42,16.41,18.33,7.35-.09,12.71-6.02,12.74-14.06Z"/><path class="cls-1" d="M710.93,501.16c21.58,5.33,36.66,16.71,47.36,33.82,4.62,7.39,3.63,11.46-2.57,17.85-11.95,12.32-26.18,21.21-41.86,27.92-1.34,.57-2.83,.8-5.81,1.61,.97-27.3,1.9-53.74,2.87-81.2Z"/></g></g></svg>