<?xml version="1.0" encoding="UTF-8" standalone="no"?><!DOCTYPE svg PUBLIC "-//W3C//DTD SVG 1.1//EN" "http://www.w3.org/Graphics/SVG/1.1/DTD/svg11.dtd"><svg width="100%" height="100%" viewBox="0 0 3334 2500" version="1.1" xmlns="http://www.w3.org/2000/svg" xmlns:xlink="http://www.w3.org/1999/xlink" xml:space="preserve" xmlns:serif="http://www.serif.com/" style="fill-rule:evenodd;clip-rule:evenodd;stroke-linecap:round;stroke-linejoin:round;stroke-miterlimit:1.5;"><rect x="41.667" y="41.667" width="458.333" height="208.333" style="fill-opacity:0.5;"/><rect x="41.667" y="291.667" width="458.333" height="208.333" style="fill:#fff;"/><path d="M500,291.667l-458.333,-0l-0,208.333l458.333,0l0,-208.333Zm-20.728,20.728l-0,166.877c-0,-0 -416.877,-0 -416.877,-0c-0,-0 -0,-166.877 -0,-166.877l416.877,-0Z" style="fill-opacity:0.5;"/><path d="M500,836.806l-45.139,-45.139l-368.055,-0l-45.139,45.139l-0,118.055l45.139,45.139l368.055,-0l45.139,-45.139l-0,-118.055Z" style="fill:#fff;"/><path d="M500,836.806l-45.139,-45.139l-368.055,-0l-45.139,45.139l-0,118.055l45.139,45.139l368.055,-0l45.139,-45.139l-0,-118.055Zm-20.833,8.629l-0,100.797c-0,-0 -32.935,32.935 -32.935,32.935c-0,-0 -350.797,-0 -350.797,-0c-0,-0 -32.935,-32.935 -32.935,-32.935c0,-0 0,-100.797 0,-100.797c0,-0 32.935,-32.935 32.935,-32.935c-0,-0 350.797,0 350.797,0l32.935,32.935Z" style="fill:#6c0b6a;fill-opacity:0.5;"/><path d="M1000,791.667l-417.568,-0l-40.765,40.765l-0,167.568l417.568,-0l40.765,-40.765l-0,-167.568Z" style="fill:#fff;"/><path d="M1000,791.667l-417.568,-0l-40.765,40.765l-0,167.568l417.568,-0l40.765,-40.765l-0,-167.568Zm-20.833,20.833l-0,138.105c-0,0 -28.562,28.562 -28.562,28.562c0,-0 -388.105,-0 -388.105,-0c-0,-0 -0,-138.105 -0,-138.105c-0,-0 28.562,-28.562 28.562,-28.562l388.105,0Z" style="fill:#6c0b6a;fill-opacity:0.5;"/><path d="M1000,500l-417.568,-0l-40.765,-40.765l-0,-167.568l417.568,-0l40.765,40.765l0,167.568Z" style="fill:#fff;"/><path d="M1000,500l-417.568,0l-40.765,-40.765l-0,-167.568l417.568,-0l40.765,40.765l0,167.568Zm-20.833,-20.833l-388.105,-0c-0,-0 -28.562,-28.562 -28.562,-28.562c0,0 0,-138.105 0,-138.105c0,0 388.105,0 388.105,0c0,0 28.562,28.562 28.562,28.562l-0,138.105Z" style="fill:#0f3393;fill-opacity:0.5;"/><path d="M500,1363.01c-0,-39.373 -31.966,-71.339 -71.34,-71.339l-315.654,-0c-39.373,-0 -71.339,31.966 -71.339,71.339l-0,65.654c-0,39.374 31.966,71.34 71.339,71.34l315.654,0c39.374,0 71.34,-31.966 71.34,-71.34l-0,-65.654Z" style="fill:#fff;"/><clipPath id="_clip1"><path d="M500,1363.01c-0,-39.373 -31.966,-71.339 -71.34,-71.339l-315.654,-0c-39.373,-0 -71.339,31.966 -71.339,71.339l-0,65.654c-0,39.374 31.966,71.34 71.339,71.34l315.654,0c39.374,0 71.34,-31.966 71.34,-71.34l-0,-65.654Z"/></clipPath><g clip-path="url(#_clip1)"><path d="M514.168,659.611c-0,-55.229 -44.772,-100 -100,-100c-162.983,-0 -484.372,-0 -650.729,-0l-105.317,105.316l0,0.015l105.317,105.317l650.729,-0c55.228,-0 100,-44.772 100,-100c-0,-3.547 -0,-7.102 -0,-10.648Z" style="fill:#ededed;stroke:#000;stroke-width:16.67px;"/></g><path d="M500,1363.01c-0,-39.373 -31.966,-71.339 -71.34,-71.339l-315.654,-0c-39.373,-0 -71.339,31.966 -71.339,71.339l-0,65.654c-0,39.374 31.966,71.34 71.339,71.34l315.654,-0c39.374,-0 71.34,-31.966 71.34,-71.34l-0,-65.654Zm-20.833,0l-0,65.654c-0,27.876 -22.631,50.507 -50.507,50.507c0,-0 -315.654,-0 -315.654,-0c-27.875,-0 -50.506,-22.631 -50.506,-50.507l-0,-65.654c-0,-27.875 22.631,-50.506 50.506,-50.506l315.654,0c27.876,0 50.507,22.631 50.507,50.506Z" style="fill:#12670f;fill-opacity:0.5;"/><path d="M1500,1395.83c-0,-57.529 -47.881,-104.166 -106.944,-104.166c-73.564,-0 -170.881,-0 -244.445,-0c-28.363,-0 -55.565,10.974 -75.621,30.509c-20.056,19.535 -31.323,46.031 -31.323,73.657l-0,0c-0,57.53 47.88,104.167 106.944,104.167c73.564,-0 170.881,-0 244.445,-0c59.063,0 106.944,-46.637 106.944,-104.167c0,0 0,0 0,0Z" style="fill:#fff;"/><path d="M1500,1395.83c-0,-57.529 -47.881,-104.166 -106.944,-104.166c-73.564,-0 -170.881,-0 -244.445,-0c-28.363,-0 -55.565,10.974 -75.621,30.509c-20.056,19.535 -31.323,46.031 -31.323,73.657l-0,0c-0,57.53 47.88,104.167 106.944,104.167c73.564,-0 170.881,-0 244.445,-0c59.063,0 106.944,-46.637 106.944,-104.167c0,0 0,0 0,0Zm-20.806,0l-0,0c-0,46.193 -38.714,83.361 -86.138,83.361c-73.564,-0 -170.881,-0 -244.445,-0c-47.424,0 -86.138,-37.168 -86.138,-83.36c-0,-0.001 -0,-0.001 -0,-0.001c-0,-22.043 9.032,-43.165 25.034,-58.752c16.202,-15.781 38.192,-24.608 61.104,-24.608c73.564,-0 170.881,-0 244.445,-0c47.423,-0 86.138,37.168 86.138,83.36Z" style="fill:#6c0b6a;fill-opacity:0.5;"/><path d="M1500,881.944l-90.278,-90.277l-277.765,-0l-90.278,90.277l-0,27.778l90.278,90.278l277.765,-0l90.278,-90.278l0,-27.778Z" style="fill:#fff;"/><path d="M1500,881.944l-90.278,-90.277l-277.765,-0l-90.278,90.277l-0,27.778l90.278,90.278l277.765,-0l90.278,-90.278l0,-27.778Zm-20.833,8.63l-0,10.519c-0,-0 -78.074,78.074 -78.074,78.074c-0,-0 -260.507,-0 -260.507,-0c0,-0 -78.074,-78.074 -78.074,-78.074c0,-0 0,-10.519 0,-10.519c0,-0 78.074,-78.074 78.074,-78.074c0,0 260.507,0 260.507,0l78.074,78.074Z" style="fill:#e97814;fill-opacity:0.5;"/><path d="M500,586.806l-45.139,-45.139l-368.055,-0l-45.139,45.139l-0,118.055l45.139,45.139l368.055,-0l45.139,-45.139l0,-118.055Z" style="fill:#6c0b6a;fill-opacity:0.5;"/><path d="M1000,541.667l-417.568,-0l-40.765,40.765l-0,167.568l417.568,-0l40.765,-40.765l-0,-167.568Z" style="fill:#6c0b6a;fill-opacity:0.5;"/><path d="M1000,250l-416.667,0l-40.765,-40.765c-0,-61.24 -0.889,-167.568 -0.889,-167.568l416.667,-0l41.654,40.765l0,167.568Z" style="fill:#0f3393;fill-opacity:0.5;"/><path d="M500,1113.01c0,-39.373 -31.966,-71.339 -71.34,-71.339l-315.654,-0c-39.373,-0 -71.339,31.966 -71.339,71.339l-0,67.969c-0,39.374 31.966,69.025 71.339,69.025l315.654,-0c39.374,-0 71.34,-31.966 71.34,-71.34l0,-65.654Z" style="fill:#12670f;fill-opacity:0.5;"/><clipPath id="_clip2"><path d="M500,1113.01c0,-39.373 -31.966,-71.339 -71.34,-71.339l-315.654,-0c-39.373,-0 -71.339,31.966 -71.339,71.339l-0,67.969c-0,39.374 31.966,69.025 71.339,69.025l315.654,-0c39.374,-0 71.34,-31.966 71.34,-71.34l0,-65.654Z"/></clipPath><g clip-path="url(#_clip2)"><path d="M514.508,409.611c-0,-55.229 -44.772,-100 -100,-100c-162.983,-0 -484.372,-0 -650.729,-0l-105.317,105.316l0,0.015l105.317,105.317l650.729,-0c55.228,-0 100,-44.772 100,-100c-0,-3.547 -0,-7.102 -0,-10.648Z" style="fill:#ededed;stroke:#000;stroke-width:16.67px;"/></g><path d="M1500,1145.83c-0,-57.529 -47.881,-104.166 -106.944,-104.166c-73.564,-0 -170.881,-0 -244.445,-0c-28.363,-0 -55.565,10.974 -75.621,30.509c-20.056,19.535 -31.323,46.031 -31.323,73.657l-0,0c-0,57.53 47.88,104.167 106.944,104.167c73.564,-0 170.881,-0 244.445,-0c59.063,0 106.944,-46.637 106.944,-104.167c0,0 0,0 0,0Z" style="fill:#6c0b6a;fill-opacity:0.5;"/><path d="M1500,631.944l-90.278,-90.277l-277.778,-0l-90.277,90.277l-0,27.778l90.277,90.278l277.778,-0l90.278,-90.278l0,-27.778Z" style="fill:#e97814;fill-opacity:0.5;"/><rect x="41.667" y="1541.67" width="66.667" height="250" style="fill:#a8a8a8;fill-opacity:0.5;"/><rect x="433.333" y="1541.67" width="66.667" height="250" style="fill:#a8a8a8;fill-opacity:0.5;"/><rect x="1041.68" y="1541.67" width="124.988" height="250" style="fill:#a8a8a8;fill-opacity:0.5;"/><rect x="1375" y="1541.67" width="125.012" height="250" style="fill:#a8a8a8;fill-opacity:0.5;"/></svg>